<svg xmlns="http://www.w3.org/2000/svg" width="180" height="48" viewBox="0 0 180 48" role="img" aria-labelledby="title">
  <title id="title">Neumann Personal Training</title>
  <rect width="180" height="48" rx="12" fill="#10261b"/>
  <path d="M28.58 31h-4.1V17h3.86l5.94 8.34V17h4.12v14h-3.78l-6.04-8.48V31z" fill="#2fbf71"/>
  <path d="M51.82 31.18c-4.58 0-7.78-3.04-7.78-7.8 0-4.75 3.2-7.79 7.78-7.79 4.56 0 7.78 3.04 7.78 7.79 0 4.76-3.22 7.8-7.78 7.8zm0-3.36c2.3 0 3.9-1.72 3.9-4.44 0-2.7-1.6-4.41-3.9-4.41-2.28 0-3.88 1.71-3.88 4.41 0 2.72 1.6 4.44 3.88 4.44z" fill="#2fbf71"/>
  <path d="M64.78 31V17h3.94v5.32l5.2-5.32h4.64l-5.78 5.96L79 31h-4.72l-4.62-6.24-1.94 2.02V31h-3.94z" fill="#2fbf71"/>
  <path d="M84.4 31V17h3.96v14H84.4z" fill="#2fbf71"/>
  <path d="M98.02 31.18c-4.22 0-6.9-2.64-7.3-5.86l4.04-.78c.24 1.88 1.64 3.14 3.38 3.14 1.38 0 2.28-.72 2.28-1.74 0-1.16-.92-1.6-3.02-2.06l-.4-.08c-2.62-.58-4.96-1.84-4.96-4.82 0-2.82 2.42-4.86 5.84-4.86 3.3 0 5.58 1.84 6.16 4.58l-3.82.9c-.3-1.38-1.38-2.12-2.64-2.12-1.22 0-2.1.68-2.1 1.66 0 1.16 1 1.6 3.06 2.06l.42.1c2.72.56 4.9 1.88 4.9 4.76 0 3.02-2.58 5.12-5.84 5.12z" fill="#2fbf71"/>
  <path d="M123.34 31.18c-2.7 0-4.72-1.14-5.42-2.72V31h-3.94V12.7h3.94v6.04c.68-1.52 2.58-2.74 5.36-2.74 4.2 0 7.1 3.08 7.1 7.38 0 4.36-2.9 7.8-7.04 7.8zm-.96-3.34c2.1 0 3.68-1.64 3.68-4.34 0-2.66-1.58-4.3-3.68-4.3-2.08 0-3.68 1.64-3.68 4.3 0 2.7 1.6 4.34 3.68 4.34z" fill="#2fbf71"/>
  <path d="M134.94 31V17h3.94v5.32l5.2-5.32h4.66l-5.8 5.96L149.18 31h-4.72l-4.62-6.24-1.96 2.02V31h-3.94z" fill="#2fbf71"/>
  <path d="M165.42 31.18c-4.22 0-6.9-2.64-7.3-5.86l4.04-.78c.24 1.88 1.64 3.14 3.38 3.14 1.38 0 2.28-.72 2.28-1.74 0-1.16-.92-1.6-3.02-2.06l-.4-.08c-2.62-.58-4.96-1.84-4.96-4.82 0-2.82 2.42-4.86 5.84-4.86 3.3 0 5.58 1.84 6.16 4.58l-3.82.9c-.3-1.38-1.38-2.12-2.64-2.12-1.22 0-2.1.68-2.1 1.66 0 1.16 1 1.6 3.06 2.06l.42.1c2.72.56 4.9 1.88 4.9 4.76 0 3.02-2.58 5.12-5.84 5.12z" fill="#2fbf71"/>
</svg>
<svg xmlns="http://www.w3.org/2000/svg" width="180" height="48" viewBox="0 0 180 48" role="img" aria-labelledby="title">
  <title id="title">Neumann Personal Training</title>
  <rect width="180" height="48" rx="12" fill="#10261b"/>
  <path d="M28.58 31h-4.1V17h3.86l5.94 8.34V17h4.12v14h-3.78l-6.04-8.48V31z" fill="#2fbf71"/>
  <path d="M51.82 31.18c-4.58 0-7.78-3.04-7.78-7.8 0-4.75 3.2-7.79 7.78-7.79 4.56 0 7.78 3.04 7.78 7.79 0 4.76-3.22 7.8-7.78 7.8zm0-3.36c2.3 0 3.9-1.72 3.9-4.44 0-2.7-1.6-4.41-3.9-4.41-2.28 0-3.88 1.71-3.88 4.41 0 2.72 1.6 4.44 3.88 4.44z" fill="#2fbf71"/>
  <path d="M64.78 31V17h3.94v5.32l5.2-5.32h4.64l-5.78 5.96L79 31h-4.72l-4.62-6.24-1.94 2.02V31h-3.94z" fill="#2fbf71"/>
  <path d="M84.4 31V17h3.96v14H84.4z" fill="#2fbf71"/>
  <path d="M98.02 31.18c-4.22 0-6.9-2.64-7.3-5.86l4.04-.78c.24 1.88 1.64 3.14 3.38 3.14 1.38 0 2.28-.72 2.28-1.74 0-1.16-.92-1.6-3.02-2.06l-.4-.08c-2.62-.58-4.96-1.84-4.96-4.82 0-2.82 2.42-4.86 5.84-4.86 3.3 0 5.58 1.84 6.16 4.58l-3.82.9c-.3-1.38-1.38-2.12-2.64-2.12-1.22 0-2.1.68-2.1 1.66 0 1.16 1 1.6 3.06 2.06l.42.1c2.72.56 4.9 1.88 4.9 4.76 0 3.02-2.58 5.12-5.84 5.12z" fill="#2fbf71"/>
  <path d="M123.34 31.18c-2.7 0-4.72-1.14-5.42-2.72V31h-3.94V12.7h3.94v6.04c.68-1.52 2.58-2.74 5.36-2.74 4.2 0 7.1 3.08 7.1 7.38 0 4.36-2.9 7.8-7.04 7.8zm-.96-3.34c2.1 0 3.68-1.64 3.68-4.34 0-2.66-1.58-4.3-3.68-4.3-2.08 0-3.68 1.64-3.68 4.3 0 2.7 1.6 4.34 3.68 4.34z" fill="#2fbf71"/>
  <path d="M134.94 31V17h3.94v5.32l5.2-5.32h4.66l-5.8 5.96L149.18 31h-4.72l-4.62-6.24-1.96 2.02V31h-3.94z" fill="#2fbf71"/>
  <path d="M165.42 31.18c-4.22 0-6.9-2.64-7.3-5.86l4.04-.78c.24 1.88 1.64 3.14 3.38 3.14 1.38 0 2.28-.72 2.28-1.74 0-1.16-.92-1.6-3.02-2.06l-.4-.08c-2.62-.58-4.96-1.84-4.96-4.82 0-2.82 2.42-4.86 5.84-4.86 3.3 0 5.58 1.84 6.16 4.58l-3.82.9c-.3-1.38-1.38-2.12-2.64-2.12-1.22 0-2.1.68-2.1 1.66 0 1.16 1 1.6 3.06 2.06l.42.1c2.72.56 4.9 1.88 4.9 4.76 0 3.02-2.58 5.12-5.84 5.12z" fill="#2fbf71"/>
</svg>

